<svg xmlns="http://www.w3.org/2000/svg" width="38.074" height="42.487" viewBox="0 0 38.074 42.487">
  <g id="icon3" transform="translate(248.521 -172.413)">
    <g id="Group_32" data-name="Group 32" transform="translate(-248.521 172.413)">
      <g id="Group_31" data-name="Group 31" transform="translate(0 0)">
        <path id="Path_23" data-name="Path 23" d="M157.33,43.111l-1.116-4.569a1.586,1.586,0,0,0-1.545-1.213h-3.121V27.782l.475-.35a19.682,19.682,0,0,0,4.517-4.664v0c.021.023.04.047.062.07a3.734,3.734,0,0,0,2.695,1.144,3.373,3.373,0,0,0,1.334-.267,3.3,3.3,0,0,0,1.96-2.756,1.131,1.131,0,1,0-2.243-.288c-.1.747-.466.906-.606.965a1.143,1.143,0,0,1-.445.085,1.5,1.5,0,0,1-1.058-.443.967.967,0,0,1-.146-1.159c.656-1.352,2.052-1.919,3.53-2.519a10.175,10.175,0,0,0,4-2.436c1.3-1.451,1.934-3.538,1.934-6.38V6.059a1.79,1.79,0,0,0-1.782-1.791h-.013a4.281,4.281,0,0,0-3.513,1.851l-.507.735a1.706,1.706,0,0,1-1.4.738h-.274V6.382a1.76,1.76,0,0,0,1.353-1.709V2.382A1.76,1.76,0,0,0,159.655.624H137.4a1.76,1.76,0,0,0-1.758,1.758v2.29a1.76,1.76,0,0,0,1.353,1.709v1.21h-.3a1.705,1.705,0,0,1-1.4-.738l-.507-.735a4.279,4.279,0,0,0-3.507-1.851A1.815,1.815,0,0,0,130,4.792a1.779,1.779,0,0,0-.526,1.267V8.785c0,2.842.633,4.929,1.934,6.38a10.175,10.175,0,0,0,4,2.437c1.477.6,2.873,1.167,3.529,2.519a.967.967,0,0,1-.146,1.159,1.5,1.5,0,0,1-1.058.443,1.144,1.144,0,0,1-.445-.085c-.139-.06-.51-.218-.606-.965a1.131,1.131,0,1,0-2.243.288,3.3,3.3,0,0,0,1.96,2.756,3.375,3.375,0,0,0,1.334.267,3.734,3.734,0,0,0,2.695-1.144c.026-.028.05-.057.075-.085a19.684,19.684,0,0,0,4.526,4.677l.475.35V37.33h-3.121a1.586,1.586,0,0,0-1.544,1.213l-1.116,4.569Zm2.73-31.583V9.853h.274A3.966,3.966,0,0,0,163.6,8.138l.507-.735a2.018,2.018,0,0,1,1.185-.815v2.2c0,2.26-.443,3.853-1.356,4.87a8.2,8.2,0,0,1-3.166,1.851c-.4.164-.821.334-1.236.525A19.617,19.617,0,0,0,160.06,11.528Zm-23.8,3.978a8.2,8.2,0,0,1-3.165-1.851c-.912-1.017-1.356-2.61-1.356-4.87v-2.2a2.02,2.02,0,0,1,1.185.816l.507.735A3.966,3.966,0,0,0,136.7,9.853h.3v1.675a19.63,19.63,0,0,0,.529,4.515C137.1,15.847,136.674,15.674,136.261,15.506Zm2.995-3.978V6.43h2.024a1.131,1.131,0,1,0,0-2.261H137.9V2.885h21.25V4.169H146.632a1.131,1.131,0,0,0,0,2.261H157.8v5.1a17.557,17.557,0,0,1-7.117,14.083l-1.063.783a1.832,1.832,0,0,1-2.184,0l-1.063-.783A17.558,17.558,0,0,1,139.256,11.528Zm10.031,17.416v8.385h-1.519V28.944a3.907,3.907,0,0,0,1.519,0Zm-6.375,10.647h11.23l.86,3.521h-12.95Z" transform="translate(-129.479 -0.624)" fill="#FFC516"/>
      </g>
    </g>
  </g>
</svg>
