<svg xmlns="http://www.w3.org/2000/svg" width="55.516" height="41.482" viewBox="0 0 55.516 41.482">
  <g id="icon1" transform="translate(-0.062 5.789) rotate(-7)">
    <path id="Path_17" data-name="Path 17" d="M281.007,231.5a1.007,1.007,0,1,0,1.007,1.007A1.008,1.008,0,0,0,281.007,231.5Zm0,0" transform="translate(-251.792 -207.732)" fill="#FFC516"/>
    <path id="Path_18" data-name="Path 18" d="M50.387.518h0l-.009,0L.823,9.786a1.008,1.008,0,0,0-.374,1.829l13.518,9.012L16.13,35.1a1.008,1.008,0,0,0,1.547.694l.009-.005L27.2,29.448l9.515,6.343a1.008,1.008,0,0,0,1.495-.466l13.3-33.445v0A1.008,1.008,0,0,0,50.387.518Zm-6.314,3.23L14.962,18.868,3.627,11.312ZM40.081,8.092,20.049,23.065a1.02,1.02,0,0,0-.352.49l-.005.012-2.21,6.947L16,20.6ZM18.957,32.522l2.25-7.07,4.177,2.785Zm17.841.9-14.4-9.6L48.318,4.451Zm0,0" transform="translate(0 0)" fill="#FFC516"/>
    <path id="Path_19" data-name="Path 19" d="M317.721,255.371l-2.7-1.8a1.007,1.007,0,1,0-1.117,1.676l2.7,1.8a1.008,1.008,0,0,0,1.118-1.677Zm0,0" transform="translate(-281.879 -227.426)" fill="#FFC516"/>
  </g>
</svg>
