<svg xmlns="http://www.w3.org/2000/svg" width="57.746" height="38.176" viewBox="0 0 57.746 38.176">
  <g id="icon2" transform="translate(0 -282.999)">
    <g id="Group_16" data-name="Group 16" transform="translate(11.465 300.757)">
      <g id="Group_15" data-name="Group 15">
        <path id="Path_12" data-name="Path 12" d="M74.691,398.362H70.7v-.344c0-1.493,4.55-2.5,4.55-5.6a3,3,0,0,0-3.215-2.913,2.839,2.839,0,0,0-3.086,2.641c0,.775.359,1,.847,1,.617,0,.976-.344.976-.689a1.164,1.164,0,0,1,1.277-1.263,1.247,1.247,0,0,1,1.335,1.277c0,2.024-4.621,3.244-4.621,5.54v1.392c0,.359.488.588.818.588h5.11c.316,0,.588-.4.588-.832S75.007,398.362,74.691,398.362Z" transform="translate(-68.764 -389.507)" fill="#FFC516"/>
      </g>
    </g>
    <g id="Group_18" data-name="Group 18" transform="translate(40.616 296.341)">
      <g id="Group_17" data-name="Group 17">
        <path id="Path_13" data-name="Path 13" d="M246.039,363.021a.583.583,0,0,0-.388.144l-1.693,1.292a.806.806,0,0,0-.359.675.693.693,0,0,0,.6.746.519.519,0,0,0,.344-.129l.459-.459v7.664c0,.387.459.588.933.588s.933-.2.933-.588v-9.329C246.871,363.251,246.426,363.021,246.039,363.021Z" transform="translate(-243.599 -363.021)" fill="#FFC516"/>
      </g>
    </g>
    <g id="Group_20" data-name="Group 20" transform="translate(0 282.999)">
      <g id="Group_19" data-name="Group 19">
        <path id="Path_14" data-name="Path 14" d="M57.746,318.571h0v-33.3A2.28,2.28,0,0,0,55.47,283H52.451c-2.567,0-16.81.109-19.508,0H29.9a2.279,2.279,0,0,0-2.277,2.277v5.675H2.277A2.279,2.279,0,0,0,0,293.228V318.8a2.279,2.279,0,0,0,2.277,2.277l55.47.1C57.746,321.22,57.709,318.581,57.746,318.571Zm-30.126,0H2.506V293.456H27.62ZM49.871,283h0Zm5.37,35.572H30.126V285.5H55.241Z" transform="translate(0 -282.999)" fill="#FFC516"/>
      </g>
    </g>
    <g id="Group_22" data-name="Group 22" transform="translate(3.99 295.35)">
      <g id="Group_21" data-name="Group 21">
        <path id="Path_15" data-name="Path 15" d="M34.733,357.076h-.139a10.664,10.664,0,0,0,0,21.328h.139a10.664,10.664,0,0,0,0-21.328Zm0,18.822h-.139a8.158,8.158,0,0,1,0-16.317h.139a8.158,8.158,0,0,1,0,16.317Z" transform="translate(-23.93 -357.076)" fill="#FFC516"/>
      </g>
    </g>
    <g id="Group_24" data-name="Group 24" transform="translate(32.102 291.374)">
      <g id="Group_23" data-name="Group 23">
        <path id="Path_16" data-name="Path 16" d="M203.339,333.229H203.2a10.664,10.664,0,1,0,0,21.328h.139a10.664,10.664,0,0,0,0-21.328Zm0,18.823H203.2a8.158,8.158,0,1,1,0-16.317h.139a8.158,8.158,0,0,1,0,16.317Z" transform="translate(-192.536 -333.229)" fill="#FFC516"/>
      </g>
    </g>
  </g>
</svg>
